<svg width="16" height="16" viewBox="0 0 16 16" fill="none" xmlns="http://www.w3.org/2000/svg">
<path fill-rule="evenodd" clip-rule="evenodd" d="M11.7895 2.52632V1.68421C11.7895 0.754047 11.0354 0 10.1053 0H5.05263C4.12247 0 3.36842 0.754047 3.36842 1.68421V2.52632H0.842105C0.377024 2.52632 0 2.90334 0 3.36842C0 3.8335 0.377024 4.21053 0.842105 4.21053H1.68421V13.4737C1.68421 14.8689 2.81528 16 4.21053 16H10.9474C12.3426 16 13.4737 14.8689 13.4737 13.4737V4.21053H14.3158C14.7809 4.21053 15.1579 3.8335 15.1579 3.36842C15.1579 2.90334 14.7809 2.52632 14.3158 2.52632H11.7895ZM10.1053 1.68421H5.05263V2.52632H10.1053V1.68421ZM11.7895 4.21053H3.36842V13.4737C3.36842 13.9388 3.74544 14.3158 4.21053 14.3158H10.9474C11.4124 14.3158 11.7895 13.9388 11.7895 13.4737V4.21053Z" fill="#4B566B"/>
<path d="M5.05263 5.89474H6.73684V12.6316H5.05263V5.89474Z" fill="#4B566B"/>
<path d="M8.42105 5.89474H10.1053V12.6316H8.42105V5.89474Z" fill="#4B566B"/>
</svg>
